<?xml version="1.0" encoding="UTF-8"?>
<!DOCTYPE svg PUBLIC "-//W3C//DTD SVG 1.1//EN" "http://www.w3.org/Graphics/SVG/1.1/DTD/svg11.dtd">
<!-- Creator: CorelDRAW X8 -->
<svg xmlns="http://www.w3.org/2000/svg" xml:space="preserve" width="200px" height="200px" version="1.1" style="shape-rendering:geometricPrecision; text-rendering:geometricPrecision; image-rendering:optimizeQuality; fill-rule:evenodd; clip-rule:evenodd"
viewBox="0 0 1347 1144"
 xmlns:xlink="http://www.w3.org/1999/xlink">
 <defs>
  <style type="text/css">
   <![CDATA[
    .str0 {stroke:#FEFEFE;stroke-width:9.37511;stroke-linecap:round;stroke-linejoin:round}
    .str2 {stroke:#00A5DF;stroke-width:9.37511;stroke-linecap:round;stroke-linejoin:round}
    .str1 {stroke:#FEFEFE;stroke-width:6.61186}
    .fil4 {fill:none}
    .fil3 {fill:#00A5DF}
    .fil1 {fill:#FFFEFA;fill-rule:nonzero}
    .fil0 {fill:#FBB22F;fill-rule:nonzero}
    .fil2 {fill:#00A5DF;fill-rule:nonzero}
   ]]>
  </style>
 </defs>
 <g id="Layer_x0020_1">
  <metadata id="CorelCorpID_0Corel-Layer"/>
  <g id="_3050553439056">
   <path class="fil0" d="M806 252l-264 0c-23,0 -41,19 -41,41l0 536c0,22 18,41 41,41l264 0c22,0 41,-19 41,-41l0 -536c0,-22 -19,-41 -41,-41z"/>
   <path class="fil1" d="M535 786l0 -485c0,0 0,-1 0,-1l277 0c1,0 1,1 1,1l0 485c0,0 0,1 -1,1l-277 0c0,0 0,-1 0,-1z"/>
   <path class="fil1" d="M703 830c0,-16 -13,-29 -29,-29 -16,0 -29,13 -29,29 0,16 13,29 29,29 16,0 29,-13 29,-29z"/>
   <path class="fil2" d="M792 568c-1,-26 -20,-47 -45,-50 -2,-36 -32,-65 -68,-65 -33,0 -60,22 -67,52 -31,3 -56,29 -56,61 0,1 0,1 0,2l0 0c0,1 0,1 0,2 0,26 21,47 47,47l142 0c26,0 47,-21 47,-47 0,-1 0,-1 0,-2l0 0z"/>
   <polygon class="fil0 str0" points="702,637 702,566 646,566 646,637 613,637 671,695 735,637 "/>
   <polygon class="fil2" points="975,224 975,111 958,117 958,224 "/>
   <path class="fil2 str1" d="M871 135l-193 65c-2,1 -4,1 -6,1 -1,0 -3,0 -5,-1l-193 -65 0 162 0 0 -1 2c0,19 89,62 199,62 110,0 199,-43 199,-62l-1 -2 1 0 0 -162z"/>
   <polygon class="fil2 str1" points="474,147 672,214 871,147 958,117 975,112 984,108 672,3 361,108 "/>
   <path class="fil0" d="M946 251l0 66c0,11 9,20 20,20 12,0 21,-9 21,-20l0 -66c0,-6 -3,-11 -6,-14l-29 0c-4,3 -6,8 -6,14z"/>
   <polygon class="fil0" points="949,224 949,237 983,237 983,224 "/>
   <path class="fil1" d="M715 272l-82 0c-3,0 -5,2 -5,4l0 1c0,3 2,5 5,5l82 0c2,0 4,-2 4,-5l0 -1c0,-2 -2,-4 -4,-4z"/>
   <path class="fil3 str2" d="M489 818c-69,-54 -160,-77 -273,-69 0,0 -20,-121 -59,-363 112,-9 200,15 266,72 -83,-31 -154,-39 -214,-24 30,178 45,267 45,267 109,10 187,49 235,117z"/>
   <path class="fil4 str2" d="M243 455c5,30 7,45 7,45"/>
   <path class="fil3 str2" d="M243 455c5,30 7,45 7,45 70,-12 128,-1 177,31 -31,-43 -92,-68 -184,-76z"/>
   <path class="fil3 str2" d="M257 535c5,30 7,45 7,45 69,-12 128,-2 177,31 -31,-43 -92,-68 -184,-76z"/>
   <path class="fil3 str2" d="M268 618c4,30 7,45 7,45 69,-12 128,-1 176,31 -30,-43 -92,-68 -183,-76z"/>
   <path class="fil3 str2" d="M160 510c3,16 4,25 4,25 -42,8 -75,26 -100,51 108,153 162,229 162,229 116,-37 201,-34 258,9 -97,-23 -187,-7 -272,46 -138,-198 -207,-297 -207,-297 42,-40 92,-58 155,-63z"/>
   <path class="fil3 str2" d="M858 818c69,-54 160,-77 274,-69 0,0 19,-121 59,-363 -112,-9 -201,15 -267,72 83,-31 155,-39 215,-24 -30,178 -45,267 -45,267 -109,10 -188,49 -236,117z"/>
   <path class="fil4 str2" d="M1104 455c-5,30 -7,45 -7,45"/>
   <path class="fil3 str2" d="M1104 455c-5,30 -7,45 -7,45 -69,-12 -128,-1 -176,31 30,-43 91,-68 183,-76z"/>
   <path class="fil3 str2" d="M1090 535c-4,30 -7,45 -7,45 -69,-12 -128,-2 -176,31 30,-43 91,-68 183,-76z"/>
   <path class="fil3 str2" d="M1080 618c-5,30 -7,45 -7,45 -69,-12 -128,-1 -177,31 31,-43 92,-68 184,-76z"/>
   <path class="fil3 str2" d="M1187 510c-2,16 -3,25 -3,25 42,8 75,26 100,51 -108,153 -163,229 -163,229 -115,-37 -201,-34 -257,9 96,-23 187,-7 271,46 139,-198 208,-297 208,-297 -42,-40 -92,-58 -156,-63z"/>
   <g>
    <path class="fil2" d="M1135 1142m14 0c-4,-2 -8,-5 -11,-9 -2,-3 -3,-7 -3,-12 0,-4 0,-8 2,-13l37 -94c3,-9 8,-16 15,-20 6,-5 13,-7 22,-7 8,0 15,2 22,7 6,4 11,11 15,20l36 94c2,5 3,9 3,13 0,5 -2,9 -4,12 -3,4 -6,7 -11,9 -3,2 -7,2 -10,2 -5,0 -10,-1 -14,-4 -4,-3 -7,-8 -9,-13l-2 -7 -52 0 -3 7c-1,5 -4,9 -9,13 -4,3 -8,4 -13,4 -4,0 -7,0 -11,-2zm50 -65l23 0 -11 -41 -12 41z"/>
    <path class="fil2" d="M1268 1142m1 -86c0,-2 -1,-5 -1,-8 0,-3 1,-6 2,-9l18 -43c2,-4 5,-7 9,-10 4,-2 8,-3 12,-3 4,0 7,0 10,2 4,2 7,5 9,8 3,4 4,8 4,13 0,4 0,7 -2,9l-20 42c-2,6 -7,10 -13,12 -3,1 -5,2 -7,2 -5,0 -9,-2 -13,-4 -3,-3 -6,-6 -8,-11z"/>
    <path class="fil2" d="M136 1063c4,-4 9,-6 14,-6l60 0c14,0 22,17 15,29 -3,6 -9,10 -16,10l-59 0c-17,0 -26,-21 -14,-33zm114 70c-10,-6 -14,-11 -14,-22 0,-15 11,-24 26,-20 8,2 16,4 24,6 5,1 14,3 19,1 3,-1 7,-2 7,-6 0,-4 -5,-5 -8,-6 -22,-6 -51,-8 -63,-30 -8,-17 -5,-37 8,-51 18,-20 51,-25 76,-17 8,2 14,5 18,8 15,11 10,39 -11,39 -8,0 -14,-3 -21,-5 -6,-1 -19,-6 -25,-2 -4,4 -1,7 3,8 10,3 20,5 31,8 10,3 21,7 28,14 19,17 17,43 2,62 -12,15 -30,22 -54,22 -14,0 -35,-2 -46,-9zm127 2c-5,-5 -7,-11 -7,-18l0 -108c0,-9 5,-17 12,-21 17,-10 37,2 37,21l0 31 43 -47c8,-9 21,-10 31,-4 12,7 15,27 5,37l-33 32 38 43c14,16 2,41 -19,41 -7,0 -14,-3 -18,-8l-47 -58 0 41c0,18 -17,29 -34,23 -2,-1 -5,-3 -8,-5zm162 7c-14,0 -25,-11 -25,-25l0 -105c0,-16 9,-26 25,-26l47 0c26,0 47,11 54,38 3,18 1,35 -13,47 -3,3 -6,5 -9,7l18 24c13,16 1,40 -19,40 -9,0 -16,-4 -22,-14l-32 -47 0 37c0,13 -11,24 -24,24zm24 -95l21 0c11,0 11,-18 0,-18l-21 0 0 18zm95 88c-5,-5 -7,-11 -7,-18l0 -108c0,-14 11,-24 25,-24 13,0 24,11 24,24l0 108c0,22 -26,33 -42,18zm61 -1c-4,-5 -7,-11 -7,-18l0 -103c0,-15 9,-27 25,-27l45 0c33,0 59,22 59,55 -1,35 -28,55 -61,55l-19 0 0 21c0,22 -26,33 -42,17zm42 -81l20 0c6,0 12,-6 12,-12 0,-6 -6,-11 -12,-11l-20 0 0 23zm97 80c-9,-6 -14,-11 -14,-22 1,-15 12,-24 26,-20 8,2 16,4 24,6 5,1 14,3 19,1 3,-1 7,-2 7,-6 0,-4 -4,-5 -7,-6 -22,-6 -52,-8 -63,-30 -9,-17 -5,-37 7,-51 18,-20 52,-25 76,-17 8,2 14,5 18,8 16,11 10,39 -11,39 -8,0 -14,-3 -21,-5 -6,-1 -18,-6 -24,-2 -4,4 -1,7 2,8 11,3 21,5 31,8 10,3 21,7 29,14 18,17 17,43 1,62 -12,15 -30,22 -54,22 -13,0 -35,-2 -46,-9zm128 2c-5,-5 -8,-11 -8,-18l0 -108c0,-14 11,-24 25,-24 14,0 24,11 24,24l0 108c0,22 -26,33 -41,18zm46 -128c0,-12 9,-21 21,-21l83 0c18,0 28,24 14,37 -4,4 -9,6 -14,6l-18 0 0 89c0,13 -11,24 -24,24 -14,0 -25,-11 -25,-25l0 -89 -16 0c-12,0 -21,-10 -21,-21z"/>
    <g>
     <path class="fil3" d="M55 1022l0 23 53 0c5,0 10,1 14,5 3,3 5,7 5,11 0,5 -2,9 -5,12 -4,4 -9,5 -14,5l-53 0 0 29 61 0c4,0 9,1 13,4 4,4 5,8 5,13 0,4 -1,9 -5,12 -4,3 -9,4 -13,4l-78 0c-6,0 -13,-1 -17,-5 -4,-5 -6,-11 -6,-18l0 -105c0,-4 1,-9 3,-13 1,-3 4,-6 8,-8 4,-2 8,-2 12,-2l75 0c5,0 10,1 14,4 4,3 5,8 5,12 0,5 -1,9 -5,12 -4,4 -9,5 -14,5l-58 0z"/>
    </g>
    <path class="fil2" d="M113 1016l-64 0 0 35 59 0c5,0 8,1 10,3 2,2 3,4 3,7 0,4 -1,6 -3,8 -2,2 -5,3 -10,3l-59 0 0 40 67 0c4,0 7,1 10,3 2,2 3,5 3,9 0,3 -1,6 -3,8 -3,2 -6,3 -10,3l-78 0c-6,0 -10,-1 -13,-4 -3,-3 -4,-7 -4,-14l0 -105c0,-4 0,-8 2,-10 1,-3 3,-5 5,-6 3,-1 6,-2 10,-2l75 0c5,0 8,1 10,3 3,2 4,5 4,8 0,4 -1,6 -4,8 -2,2 -5,3 -10,3z"/>
   </g>
  </g>
 </g>
</svg>
