<?xml version="1.0" encoding="UTF-8"?>
<!DOCTYPE svg PUBLIC "-//W3C//DTD SVG 1.1//EN" "http://www.w3.org/Graphics/SVG/1.1/DTD/svg11.dtd">
<!-- Creator: CorelDRAW X8 -->
<svg xmlns="http://www.w3.org/2000/svg" xml:space="preserve" width="29" height="29" version="1.1" shape-rendering="geometricPrecision" text-rendering="geometricPrecision" image-rendering="optimizeQuality" fill-rule="evenodd" clip-rule="evenodd"
viewBox="0 0 93 93"
 xmlns:xlink="http://www.w3.org/1999/xlink">
 <g id="Layer_x0020_1">
  <metadata id="CorelCorpID_0Corel-Layer"/>
  <path fill="#1C668B" d="M48 19l0 -2 -20 0 0 57 20 0 0 -53 2 8c1,0 23,-6 27,-7 -1,-1 -2,-8 -3,-9 -1,-1 -3,0 -4,0l-10 3c-2,0 -4,1 -6,1 -2,1 -4,1 -6,2z"/>
  <polygon fill="#1C668B" points="0,74 25,74 25,23 0,23 "/>
  <path fill="#1C668B" d="M53 38l2 9c0,3 1,5 2,8 1,3 1,6 2,9 1,3 2,5 2,8l27 -7c-1,-3 -2,-5 -2,-8l-7 -26c-5,1 -14,4 -20,5 -1,1 -6,2 -6,2z"/>
  <path fill="#1C668B" d="M65 85l1 6c1,1 1,2 2,2l0 0c1,0 2,-1 3,-1 1,0 2,0 3,-1 2,0 2,0 4,-1 1,0 2,0 3,0 1,-1 2,-1 3,-1l8 -2c2,-2 -1,-6 -1,-9l-25 6c0,0 -1,0 -1,1z"/>
  <path fill="#1C668B" d="M0 91c0,1 1,2 1,2l23 0c0,0 1,-1 1,-2l0 -7 -25 0 0 7z"/>
  <path fill="#1C668B" d="M0 14l0 6 25 0 0 -6c0,-1 -1,-2 -2,-2l-21 0c-1,0 -2,1 -2,2z"/>
  <path fill="#1C668B" d="M28 91c0,1 0,2 1,2l18 0c1,0 1,-1 1,-2l0 -7 -20 0 0 7z"/>
  <path fill="#1C668B" d="M62 75c0,1 1,3 1,3 0,1 1,3 1,4 1,0 17,-5 20,-6 2,0 4,-1 6,-1 0,-1 -1,-6 -1,-7l-24 6c0,1 -2,1 -3,1z"/>
  <path fill="#1C668B" d="M28 2l0 4 20 0c0,-3 1,-6 -2,-6l-17 0c-1,0 -1,1 -1,2z"/>
  <polygon fill="#1C668B" points="28,14 48,14 48,9 28,9 "/>
  <path fill="#1C668B" d="M51 32c0,1 1,2 1,3 1,0 5,-1 6,-1 3,-1 5,-2 7,-2l13 -4c0,-1 0,-2 -1,-3 -7,2 -15,4 -23,6 -1,0 -2,1 -3,1z"/>
  <path fill="#1C668B" d="M0 81l25 0 0 -3c0,-1 0,-1 -1,-1l-24 0 0 4z"/>
  <path fill="#1C668B" d="M28 78l0 3 20 0c0,-3 0,-4 0,-4l-20 0c0,0 0,0 0,1z"/>
 </g>
</svg>
