<?xml version="1.0" encoding="UTF-8"?>
<!DOCTYPE svg PUBLIC "-//W3C//DTD SVG 1.1//EN" "http://www.w3.org/Graphics/SVG/1.1/DTD/svg11.dtd">
<!-- Creator: CorelDRAW X8 -->
<svg xmlns="http://www.w3.org/2000/svg" xml:space="preserve" width="25" height="25" version="1.1" shape-rendering="geometricPrecision" text-rendering="geometricPrecision" image-rendering="optimizeQuality" fill-rule="evenodd" clip-rule="evenodd"
viewBox="0 0 442 442"
 xmlns:xlink="http://www.w3.org/1999/xlink">
 <g id="Layer_x0020_1">
  <metadata id="CorelCorpID_0Corel-Layer"/>
  <path fill="#FEFEFE" d="M212 0l20 0c14,1 29,3 44,7 12,3 29,8 39,14l26 14c12,8 27,20 37,30 18,18 32,38 44,63 12,25 19,56 20,87l0 16c0,23 -5,45 -13,65 -2,7 -4,13 -7,19 -25,50 -59,84 -107,107 -33,16 -62,20 -102,20 -53,0 -110,-26 -148,-64 -19,-19 -33,-39 -45,-63 -15,-33 -20,-62 -20,-102 0,-40 17,-89 40,-120 8,-10 16,-19 25,-28 39,-40 92,-63 147,-65z"/>
  <path fill="#00A5DF" d="M223 302c-13,0 -16,-6 -29,-18l-56 -57c-15,-15 -5,-31 9,-33 10,-1 15,6 21,12 6,5 32,32 35,34l0 -149c0,-12 -2,-23 8,-29 9,-6 20,-3 26,6 3,5 2,13 2,22l0 150 37 -36c8,-8 9,-10 20,-10 7,0 16,9 16,19 0,10 -13,19 -18,25l-57 56c-3,4 -7,8 -14,8z"/>
  <path fill="#00A5DF" d="M130 346c0,-10 8,-19 17,-19l149 0c20,0 25,37 -6,37l-138 0c-12,0 -22,-7 -22,-18z"/>
 </g>
</svg>
